<svg id="Layer_1" data-name="Layer 1" xmlns="http://www.w3.org/2000/svg" viewBox="0 0 657.02 791.57"><defs><style>.cls-1{fill:#d5ae4e;}.cls-2{fill:#231f20;}.cls-3{fill:#fff;}</style></defs><title>Artboard 1 copy</title><path class="cls-1" d="M188.73,705.81c0,19-19.62,18.14-20,18.14H156.07V692.67c0-2-1.34-3.77-4.56-4.46v-.55h17.2C169.3,687.71,188.78,686.52,188.73,705.81Zm-8.27,0c0-14.48-11.75-14.33-11.75-14.33h-5.06v28.65h5.06S180.46,720.28,180.46,705.81Z"/><path class="cls-1" d="M194.19,724l17.4-36.29L229.09,724h-8.43l-3-6.2H201.43l-3,6.2Zm8.73-9.37h13.23l-6.64-13.78Z"/><path class="cls-1" d="M267.86,724h-8.53l-11.6-16H246.2v16h-7.59V692.67c0-2-1.33-3.77-4.56-4.46v-.55H246.2c6,0,16.16.45,16.16,10.17,0,5.4-3,7.93-6.74,9.07C255.62,707,267.86,724,267.86,724ZM249,705.11c1.94,0,6.5-.25,6.5-7.53s-6.5-7.14-6.5-7.14H246.2v14.67Z"/><path class="cls-1" d="M322.59,720.77V724H298.7V692.67c0-2-1.39-3.77-4.56-4.46v-.55h28.45v3.18H306.28v12.29h13.43V707H306.28v13.82Z"/><path class="cls-1" d="M360.86,720.13V724H336.57V692.67c0-2.23-1.48-3.77-4.56-4.46v-.55h11.5v32.47Z"/><path class="cls-1" d="M421.79,724l-3.52-20.43L406.12,724l-11.75-19.19L391.85,724H388l3.07-23.4c.35-3.12,1.59-11.35-4-12.64v-.25c6.29.25,9.76,6.5,11.75,10l9.36,15.31,14.92-25.28,6.3,36.29Z"/><path class="cls-1" d="M464.87,720.77V724H441V692.67c0-2-1.39-3.77-4.56-4.46v-.55h28.45v3.18H448.56v12.29H462V707H448.56v13.82Z"/><path class="cls-1" d="M506.06,717.06c-.44.89-4.46,7.53-14.77,7.53-11.05,0-17.49-8.42-17.49-18.88s6.44-18.89,17.49-18.89c10.46,0,14.43,6.89,14.82,7.58l-1.38,2.24C493,685,482,692.27,482,705.71s11.21,20.52,22.8,9.17Z"/><path class="cls-1" d="M547.31,717.06c-.44.89-4.46,7.53-14.77,7.53-11,0-17.5-8.42-17.5-18.88s6.45-18.89,17.5-18.89c10.46,0,14.42,6.89,14.82,7.58L546,696.64c-11.7-11.65-22.7-4.37-22.7,9.07s11.2,20.52,22.8,9.17Z"/><path class="cls-1" d="M554.8,724l17.4-36.29L589.7,724h-8.43l-3-6.2H562l-3,6.2Zm8.73-9.37h13.23l-6.64-13.78Z"/><path class="cls-2" d="M280.46,748.63h-8.58v25.43h-5.94V748.63h-8.61v-3h23.13Z"/><path class="cls-2" d="M325.57,774.06h-6.68l-9.08-12.54H308.6v12.54h-5.94v-24.5c0-1.55-1-2.95-3.57-3.49v-.42h9.51c4.66,0,12.66.34,12.66,8,0,4.23-2.37,6.21-5.28,7.11C316,760.75,325.57,774.06,325.57,774.06Zm-14.75-14.75c1.51,0,5.08-.2,5.08-5.9a5.15,5.15,0,0,0-5.08-5.59H308.6v11.49Z"/><path class="cls-2" d="M343.42,774.06l13.63-28.41,13.7,28.41h-6.6l-2.33-4.85H349.09l-2.33,4.85Zm6.83-7.34h10.37l-5.21-10.79Z"/><path class="cls-2" d="M408,745.65l-13.5,29L382.35,748a3.1,3.1,0,0,0-1-1.16,2.72,2.72,0,0,0-1.39-.58l-1.09-.16v-.42h5.78a4.08,4.08,0,0,1,3.65,2.32l7.53,16.62,8.82-18.94Z"/><path class="cls-2" d="M448.89,771.58v2.48H430.18v-24.5c0-1.55-1.09-2.95-3.57-3.49v-.42h22.28v2.48H436.12v9.62h10.52v3H436.12v10.83Z"/><path class="cls-2" d="M490.5,771.07v3h-19v-24.5c0-1.74-1.17-2.95-3.57-3.49v-.42h9v25.42Z"/><path class="cls-2" d="M460.59,53.51c0,.27,0,.52,0,.81L460,64.57A300.72,300.72,0,0,0,347.41,42.85C180.68,42.85,45.52,178,45.52,344.74a300.69,300.69,0,0,0,79.33,204c-.84,1.17-1.61,2.34-2.37,3.52A306.85,306.85,0,0,1,21.73,324.53c0-169.89,137.73-307.6,307.62-307.6a306.58,306.58,0,0,1,131.3,29.32c0,.4-.06.78-.06,1.15a17,17,0,0,0,.27,3A19.63,19.63,0,0,0,460.59,53.51Z"/><path class="cls-2" d="M561.32,122.51c-.1.15-.21.3-.29.44l-.21.34c-.23.37-.4.67-.56,1L558,128.41A304,304,0,0,0,499.32,83.8l-1-16.31A307.87,307.87,0,0,1,561.32,122.51Z"/><path class="cls-1" d="M175.35,571.34a6.2,6.2,0,0,0-.44.65q-9.37-6.68-18.23-14.07c.44-.9.86-1.77,1.26-2.67Q166.28,563.65,175.35,571.34Z"/><path class="cls-1" d="M458.91,83.49l0,.58a29.93,29.93,0,0,0-3.38,6.19,6.43,6.43,0,0,0-.42,1.4l-.55,2.84a7,7,0,0,0-.14,1.44v3a275.81,275.81,0,0,0-27.91-9,24.65,24.65,0,0,0,.4-4.3,23.23,23.23,0,0,0-2.28-10,7.59,7.59,0,0,0-6.84-4.3,7.78,7.78,0,0,0-2.86.56l-11.16,4.58-11.12-4.6a7.38,7.38,0,0,0-2.89-.58,7.59,7.59,0,0,0-6.83,4.28,22.33,22.33,0,0,0-2,6.42c-8.38-.78-16.83-1.15-25.4-1.15C201.73,80.79,77.1,205.42,77.1,359.13a277.19,277.19,0,0,0,63.72,177.24,7.42,7.42,0,0,0-2.16-.31,7.35,7.35,0,0,0-4.09,1.23A282.61,282.61,0,0,1,55.15,340.48c0-156.63,127-283.63,283.63-283.63A282.53,282.53,0,0,1,458.91,83.49Z"/><path class="cls-1" d="M543.87,144.59c-.86.56-1.7,1.11-2.53,1.67l-3.7,2.45q-9.57-8.31-19.9-15.75V122.81a7.25,7.25,0,0,0-.55-2.78A278.26,278.26,0,0,1,543.87,144.59Z"/><path class="cls-2" d="M445.06,452.09l10.33,7.68L437.9,419.12l-10.69,16.82,4.1,3.4,12.62,122c0,.18,0,.35,0,.53a50.79,50.79,0,0,1,7.3,13.64c3.48-8.06,4.6-19.19,3.13-33.39Z"/><path class="cls-2" d="M529.39,585.44c-2,8.89-4,17.76-5.83,26.69a27.06,27.06,0,0,0-.4,8.88c1.31,9.57,9.9,15.14,19.88,12.48,6.32-1.68,12.79-3.73,18.32-6.91q31.88-18.32,63.09-37.57c8.69-5.37,8.56-8.87-.45-14-10-5.67-20.62-10.42-31-15.42-12.92-6.21-24-14.45-32.8-25.25-.77-1-1.45-2.15-2.5-2.68-10.15-5.16-5.62-13.54-6.46-22.55l29.44,13.56-.51,1.91-9.22,1.72c1.25,1.41,2,2.81,3.22,3.55,7.67,4.66,15.32,9.36,23.22,13.65a126.54,126.54,0,0,0,16.12,7.3c23.5,8.78,24.63,23,19,42.76-1.06,3.74-4.22,7.54-7.52,10-22.72,17.25-46.85,32.58-73,45a42.27,42.27,0,0,1-6.54,2.41c-13.25,3.8-23.75-2-25.95-14.74C516.36,618.46,521,601.68,529.39,585.44Z"/><path class="cls-2" d="M359.23,648.16c5.55-2.3,11.07-4.67,16.66-6.91,34.89-14,70.38-26.75,102.89-45.33a340.78,340.78,0,0,0,29.43-19c8.28-5.93,8-6.73,3.9-15.48-5.4-11.65-11.39-23.14-15.58-35.16-1.79-5.12.32-11.42.58-15.67L518.94,527l-8.45.77c2.77,6.41,6.25,12.41,7.9,18.82a81.79,81.79,0,0,1,2.92,22.74c-.27,8-4.22,15.17-10.88,20.9-21.75,18.71-46.61,33.58-74,42.93-23.23,7.93-48.39,11-72.71,16.13a20.11,20.11,0,0,1-4.11,0Z"/><path class="cls-2" d="M532.58,422l15.5,39-2,1.13-8-5.71c.69,9.92,1.28,18.67,1.92,27.41,2.25,31.1,4.86,62.17,6.61,93.29.83,14.73-1.72,29.2-10.16,42.57-.08-1.59-.21-3.18-.24-4.77-.21-16.65.26-33.33-.74-49.93-2.28-37.66-5.27-75.28-8-112.91-.23-3.16.06-6.58-1.16-9.41-3.42-8,1.25-14,4-20.53Z"/><path class="cls-2" d="M469.67,422q7.74,16.07,15.49,32.13l-2,.94-8-4.7c.69,8.16,1.29,15.37,1.92,22.57,2.25,25.6,4.86,51.19,6.62,76.81.83,12.13-1.73,24-10.17,35-.08-1.31-.21-2.62-.23-3.93-.22-13.7.26-27.44-.75-41.11-2.27-31-5.26-62-8-93-.23-2.6.05-5.41-1.17-7.74-3.42-6.56,1.26-11.52,3.95-16.91Z"/><path class="cls-2" d="M168.78,652.8c2.09-2.14,3.74-5.33,6.33-6.24,32.1-11.37,64.33-22.41,96.54-33.51a12.09,12.09,0,0,1,2.68-.23c.43,4.66-3,5.78-6.39,7q-43.4,15.3-86.78,30.66c-3.56,1.26-7.06,2.64-10.6,4Z"/><path class="cls-2" d="M483.82,497.85c2.08-2.14,3.74-5.33,6.32-6.24,32.1-11.37,64.33-22.42,96.55-33.51a12.55,12.55,0,0,1,2.67-.24c.43,4.67-3,5.79-6.39,7q-43.4,15.3-86.77,30.65c-3.56,1.26-7.07,2.65-10.6,4Z"/><path class="cls-2" d="M307.08,509.12c2.09-2.13,3.74-5.33,6.32-6.24,32.1-11.37,64.34-22.41,96.55-33.51a12,12,0,0,1,2.67-.23c.44,4.66-3,5.79-6.39,7q-43.39,15.3-86.77,30.66c-3.56,1.26-7.07,2.64-10.6,4Z"/><path class="cls-2" d="M395,417.1l25.07-13.33-.17-2.16c-4.14-.36-8.27-.87-12.42-1-4.39-.18-8.79,0-13.35,0,2.4-9.21,5.23-11.83,13.74-12a150.24,150.24,0,0,1,19.79.8c5.6.63,6.3,2.74,3.65,7.31C423.93,409.43,412.06,415.55,395,417.1Z"/><path class="cls-2" d="M147.6,494.57l25.07-13.32-.17-2.16c-4.14-.36-8.27-.87-12.42-1-4.39-.18-8.79,0-13.35,0,2.4-9.21,5.23-11.83,13.74-12a148.54,148.54,0,0,1,19.79.8c5.6.63,6.3,2.74,3.65,7.31C176.49,486.91,164.62,493,147.6,494.57Z"/><path class="cls-2" d="M370.07,478.89c1.5-4.63,2.36-9,4.37-12.77,1-2,4.11-3,6.27-4.45l3.83,6.76-.8,2c-7.36-5.15-8.6-.62-9.79,3.68-1.31,4.71-2.39,9.47-3.58,14.21l-1.65.12c-.77-1.86-1.5-3.73-2.32-5.58-1.87-4.22-2.47-9.41-9.45-9.53-1.12,0-3.14-2.6-3-3.86a6.71,6.71,0,0,1,3.2-4.69c1.12-.59,4.19.18,5,1.25C364.94,469.87,367.18,474.1,370.07,478.89Z"/><path class="cls-2" d="M489.07,389.71a2.61,2.61,0,0,1-.87-2c-.08-2.18.32-4.41,0-6.58-.39-3.06-3-4.25-5.63-2.43a17.78,17.78,0,0,0-4.78,5.29c-2.12,3.43-.84,6.69,2.94,8.47.88.42,1.72.87,2.91,1.48-11,11.71-25.6,18.73-38.06,28.25,9.7-3.51,18.88-7.94,26.94-14a90.48,90.48,0,0,0,11.25-10.64c2.58-2.79,2.33-3,5.83-1.22.11.06.29,0,.43,0C492.84,392.73,492.73,392.29,489.07,389.71Zm-4.57-1.61c-1.5-.88-2.89-2-4.31-3,1-.71,1.86-1.73,3-2.07,1.3-.39,2.54,1.42,2.58,4.11C485.52,387.34,484.67,388.23,484.5,388.1Z"/><path class="cls-2" d="M320.86,635.13c0-5.79-.35-11.6.1-17.35a62.8,62.8,0,0,1,2.74-15.1c2.17-6.47,6.1-8.28,10.69-6.07,6.08,2.93,8,8.76,4.74,14.24a3.43,3.43,0,0,1-1.2,0c-9.32-4-12-2.69-12.84,7.1-.73,8.94-.78,17.92-1.39,26.87-.16,2.28-1.29,4.5-2.1,7.18-5.38-8.19-10.16-15.65-15.14-23-2.25-3.33-4.45-5.8-9.92-3.42-2.09.91-8.65-2.15-9.26-4.35-1-3.43.8-8,2.72-11.4.66-1.18,5.71-1.34,8-.4,7.63,3.16,12.46,9.11,16,16,1.72,3.34,3.47,6.67,5.2,10Z"/><path class="cls-2" d="M144.21,548.8c-2.45,5.44-5.44,10.74-7.22,16.37a74.33,74.33,0,0,0-3.19,17.39c-.13,2.16,2,5.43,4.14,6.38,1.59.73,4.85-1.13,7.07-2.32,1.51-.8,2.53-2.42,3.76-3.68l1.43.89c-2.24,4.15-4.24,8.42-6.78,12.4-2.33,3.65-5.91,5.88-10.75,4.73s-6.43-5-6.47-9.18C126.05,575.23,132.85,561,144.21,548.8Z"/><path class="cls-2" d="M605.21,484.55c-1.7,5.25-3.69,10.44-5,15.77a35.62,35.62,0,0,0-1.08,11.28,8.34,8.34,0,0,0,3.8,5.91c1.16.6,4.1-1.55,6.11-2.65.82-.45,1.31-1.39,2.45-1.9-.61,5.38-2.14,10.48-7,14-3.33,2.45-8.34.54-9.66-3.67a23.22,23.22,0,0,1-.92-7.51A51.18,51.18,0,0,1,605.21,484.55Z"/><path class="cls-2" d="M508.1,421.27c-1.7,5.25-3.69,10.44-5,15.78A35,35,0,0,0,502,448.32a8.28,8.28,0,0,0,3.79,5.91c1.17.61,4.1-1.55,6.11-2.65.82-.44,1.31-1.39,2.45-1.9-.61,5.39-2.14,10.48-7,14-3.33,2.45-8.34.55-9.66-3.67a23.78,23.78,0,0,1-.92-7.51A51.33,51.33,0,0,1,508.1,421.27Z"/><path class="cls-2" d="M424.64,526.45c-5.11-12.6-16.56-15.72-26.61-6.14a106.09,106.09,0,0,0-19.94,26.37c-6.15,11.48-15.4,17.42-28.26,19.72-14.66,2.62-26.82-2.63-37.59-11-29.92-23.37-62-43.7-97.2-59.6a53,53,0,0,1-5.1-3.41c12.31-6.84,23.14-14.2,35.09-19.24,32.75-13.81,65.9-26.86,99.11-39.66,4.23-1.63,9.34-1.16,15.7-1.31,1.13,0,2.3-.06,3.53-.14a65.5,65.5,0,0,1-3.53,5.73c-10.08,14.72-24.56,24.61-27.91,41.47,9.55-10.8,19-20.53,27.17-31.18a67.89,67.89,0,0,0,7.08-11.47,55.77,55.77,0,0,0,3.59-9.36c0-.12.06-.25.09-.35.93-3.49.9-6.1-.09-7.93-1.39-2.63-4.74-3.68-9.93-3.41l-1.21.08a78,78,0,0,0-16.71,3c-40.74,13-79.86,29.28-117,49.67-12.57,6.88-18.7,16.48-19.28,29.24-.18,3.91,2,9.3,5.12,11.75,16,12.51,33,23.86,48.89,36.43,8.08,6.4,14.71,14.43,21.71,22,3.57,3.83,2.12,7.3-1.8,10.61-12.09,10.3-31.79,9.67-42.47-2C232.78,571.62,229.72,566,226,561c-4.86-6.52-11.27-7.52-18.07-3.18-4.35,2.8-8.83,6.1-11.72,10.13a356.77,356.77,0,0,0-21,32.46c-10.67,19-24.35,35-45.61,44.54-1.88.86-3.41,2.37-6.31,4.43,2.76,0,4.07.27,5.17,0,21.19-6.08,39.69-15.37,49.51-35.36,3.53-7.21,7.18-14.5,11.87-21.08a81.26,81.26,0,0,1,15.4-16.48c5.91-4.72,12.25-4.11,16.49,3.07,2.45,4.1,5.29,8,7.8,12.11,9.4,15.32,37.94,17.11,50,2.84C290,582,291.48,569,283.91,552.77c4.47,3.12,7,4.7,9.34,6.51,8,6.26,15.65,12.9,23.91,18.82,16.39,11.73,35.33,10.52,49.43-3.53,5.91-5.91,10.34-13.12,14.59-18.64,10.61,3.52,21.05,7.27,31.69,10.39a9.28,9.28,0,0,0,6.8-.25h0a10.58,10.58,0,0,0,5-5.91c.1-.26.21-.53.3-.81.4-1.07.74-2.12,1-3.19h0A44.48,44.48,0,0,0,424.64,526.45Zm-9.58,28.63-2.84-1.94c-5.41-3.72-16.62-11.58-16.62-13,0-1.91,6.57-10.11,6.57-10.11s2.09-2.66,7.91,3.14c4.87,4.86,5.21,15.19,5.08,19.71C415.13,554.24,415.06,555.08,415.06,555.08Z"/><path class="cls-2" d="M178.89,527.65l-13.3-9.15,7-13.79c18,7.54,18.41,8.31,11.79,22.79,15,11.62,15,11.71,4.62,23a5.46,5.46,0,0,1-1.77-.39c-4.43-2.81-8.82-5.68-14.2-9.16Z"/><path class="cls-2" d="M451.24,575.53S424,602.9,381.18,555.93l31-2.79c1.72,1.18,2.84,1.93,2.84,1.93s.08-.83.11-2.19l4.34-.4a39.11,39.11,0,0,0,4.39,6.71l.83,1c4.52,5.08,11.51,9.49,19.22,1.71a33.06,33.06,0,0,1,5-4.4c2.56-1.66,1.94.61,1.94.61Z"/><path class="cls-2" d="M425.85,556s11.16,8.7,19.31,1.12,1.21,18.81,1.21,18.81l-19.92,3.37-8.15-10.95Z"/><path class="cls-2" d="M393,623.22c-2.33-8-4.58-15.92-7-23.85-2.5-8.16-.75-10.66,10-13.72-3.08-2.09-3.08-2.09-7.3.51l-1.32-.69c2.09-1.77,3.79-4,6.45-5.11,1.14-.47,4.36,1.28,6.49,2.18a12.06,12.06,0,0,1,2.88,2c2.75,2.3,1.8,4.27-2.33,4.87-14.71,2.16-14.45,2.12-11.08,12.31a117.59,117.59,0,0,1,3.81,17c.28,1.55-.71,3.21-1.12,4.83Z"/><path class="cls-1" d="M486.9,29.07a7.83,7.83,0,0,0-.77-3.38,6.79,6.79,0,0,1,.37,2.21,7.39,7.39,0,0,1-14.76,0,6.79,6.79,0,0,1,.37-2.21,7.78,7.78,0,0,0,6.33,11.12v1.37a3.36,3.36,0,0,0-1.73,5.65v2.31a1.32,1.32,0,0,0,0,2.54v2.47a3.37,3.37,0,0,0,0,4.71v.24H477a3.3,3.3,0,0,0,4.24,0h.36v-.34a3.3,3.3,0,0,0,0-4.51V48.62a1.5,1.5,0,0,0,.89-1.21,1.53,1.53,0,0,0-.89-1.22V43.73a3.31,3.31,0,0,0,.89-2.25,3.37,3.37,0,0,0-2.7-3.3V36.81A7.77,7.77,0,0,0,486.9,29.07Z"/><path class="cls-2" d="M412.8,242.42V213.48l.52-.67,1-2.94v-3l.35-.71.47-2.1v-3.42L412,197.44l-.32-34.74-4-35.22h-7.71l-4,34.81-.34,35.15-3.19,3.19v3.42l.49,2.1.34.71v3l1,2.94.51.67v28.94l-3,3v4.18L393,252v1.86l1.84,1.82v21.21h18V255.64l1.83-1.82V252l1.19-2.33v-4.18Zm-10.31-38.76-.06-.13,1.37-1.36,1.36,1.36-.54,2.22v2.46l-.5.67-.32,1-.32-1-.5-.67v-2.46ZM405,250.49V252l-1.15,1.16L402.65,252v-1.5l-1.1-2.14,2.25-2.23,2.23,2.23Z"/><path class="cls-1" d="M325.61,174.21a10.57,10.57,0,0,0-1-4.57,9.28,9.28,0,0,1,.49,3,10,10,0,0,1-20,0,9.29,9.29,0,0,1,.5-3,10.53,10.53,0,0,0,8.57,15.05v1.84a4.56,4.56,0,0,0-2.34,7.65v3.13a1.77,1.77,0,0,0,0,3.42v3.35a4.55,4.55,0,0,0,0,6.37v.33h.39a4.48,4.48,0,0,0,5.74,0h.49v-.46a4.49,4.49,0,0,0,0-6.11v-3.55a1.72,1.72,0,0,0,0-3.28V194a4.48,4.48,0,0,0,1.2-3,4.56,4.56,0,0,0-3.64-4.46v-1.84A10.53,10.53,0,0,0,325.61,174.21Z"/><path class="cls-2" d="M509.5,189v9.76h-2.56v71.88l-27.09-12v15.74H468.27V258.61l-16.75,7.44v-67.3H449V189h4.27V184.2h-1.7v-6.8h-2V158.64h6.33V122.81H457v-3.76h1.25s-.57-4.69,2.06-4.69,2.06,4.64,2.06,4.64h1v1h1.75v-8.68l5.86-5.81v-2.8h-1.43V96s1.71-4.22,4.16-5.3l2.12-36.44h6.61l2.11,36.44c2.45,1.08,4.16,5.3,4.16,5.3v6.78h-1.43v2.8l5.87,5.81V120h1.74v-1h1s-.55-4.64,2.06-4.64,2.06,4.69,2.06,4.69h1.25v3.76h1.35v35.83h6.32V177.4h-2v6.8h-1.72V189Z"/><polygon class="cls-1" points="379.68 374.58 416.28 359.87 416.28 346.18 379.68 360.89 379.68 374.58"/><polygon class="cls-1" points="424.49 356.79 461.09 342.08 461.09 328.39 424.49 343.1 424.49 356.79"/><path class="cls-2" d="M570.39,289.88l-5.56-2.39L512.74,265l-5.8-2.5-1.61-.69L474.1,248.37v0H474v0l-22.52,9.71-38.72,16.7L408,276.85h0L359.84,297.6V407.17a43.52,43.52,0,0,1,9.93,1.52V352.34l100.9-42.41v54.39a44.64,44.64,0,0,1,6.79-.75V309.93l100.9,42.41v83.13l9.93,3.07V297.6Zm-102.11,13.2-97.15,40.36V301.72l80.39-35.66,16.76-7.44ZM577,343.44l-97.17-40.36V258.62l27.1,12L577,301.72Z"/><polygon class="cls-1" points="568.45 374.58 531.85 359.87 531.85 346.18 568.45 360.89 568.45 374.58"/><polygon class="cls-1" points="523.64 356.79 487.04 342.08 487.04 328.39 523.64 343.1 523.64 356.79"/><polygon class="cls-2" points="570.39 263.74 570.39 289.89 564.83 287.49 564.83 270.53 512.74 252.45 512.74 265.03 505.34 261.84 505.34 241.17 570.39 263.74"/><path class="cls-1" d="M478,90.73h2.53a1.16,1.16,0,0,1,1.16,1.16v11.67a0,0,0,0,1,0,0H476.8a0,0,0,0,1,0,0V91.89A1.16,1.16,0,0,1,478,90.73Z"/><path class="cls-1" d="M482.73,93.18h1.87a1.5,1.5,0,0,1,1.5,1.5v8.88a0,0,0,0,1,0,0h-3.37a0,0,0,0,1,0,0V93.18A0,0,0,0,1,482.73,93.18Z"/><path class="cls-1" d="M472.16,93.18h3.37a0,0,0,0,1,0,0v8.88a1.5,1.5,0,0,1-1.5,1.5h-1.87a0,0,0,0,1,0,0V93.18A0,0,0,0,1,472.16,93.18Z" transform="translate(947.69 196.75) rotate(-180)"/><rect class="cls-1" x="458.96" y="166.08" width="3.08" height="6.5"/><rect class="cls-1" x="465.2" y="166.08" width="3.08" height="6.5"/><rect class="cls-1" x="471.44" y="166.08" width="3.08" height="6.5"/><rect class="cls-1" x="477.68" y="166.08" width="3.08" height="6.5"/><rect class="cls-1" x="483.93" y="166.08" width="3.08" height="6.5"/><rect class="cls-1" x="490.17" y="166.08" width="3.08" height="6.5"/><rect class="cls-1" x="496.41" y="166.08" width="3.08" height="6.5"/><rect class="cls-1" x="458.96" y="175.78" width="3.08" height="13.22"/><rect class="cls-1" x="465.2" y="175.78" width="3.08" height="13.22"/><rect class="cls-1" x="471.44" y="175.78" width="3.08" height="13.22"/><rect class="cls-1" x="477.68" y="175.78" width="3.08" height="13.22"/><rect class="cls-1" x="483.93" y="175.78" width="3.08" height="13.22"/><rect class="cls-1" x="490.17" y="175.78" width="3.08" height="13.22"/><rect class="cls-1" x="496.41" y="175.78" width="3.08" height="13.22"/><rect class="cls-3" x="458.96" y="198.09" width="3.08" height="48.32"/><rect class="cls-3" x="465.2" y="198.09" width="3.08" height="48.32"/><rect class="cls-3" x="471.44" y="198.09" width="3.08" height="48.32"/><rect class="cls-3" x="477.68" y="198.09" width="3.08" height="48.32"/><rect class="cls-3" x="483.93" y="198.09" width="3.08" height="48.32"/><rect class="cls-3" x="490.17" y="198.09" width="3.08" height="48.32"/><rect class="cls-3" x="496.41" y="198.09" width="3.08" height="48.32"/><polygon class="cls-1" points="399.63 276.86 399.63 253.82 397.81 253.82 397.81 250.49 396.61 249.63 396.61 245.44 399.63 245.44 399.63 211.83 398.12 209.86 398.12 205.76 397.3 204.05 397.3 200.63 400.46 200.63 400.8 162.74 403.8 131.1 406.79 162.74 407.13 200.63 410.3 200.63 410.3 204.05 409.47 205.76 409.47 209.86 407.96 211.83 407.96 245.44 410.98 245.44 410.98 249.63 409.78 250.49 409.78 253.82 407.96 253.82 407.96 276.86 399.63 276.86"/><path class="cls-2" d="M393.13,275.26S332,219.61,314,219.61c-13,0-97.84,58.39-98.75,112.66,0,0,39.23-27.82,120.64-19.15,0,0-79.36.68-129.08,38.54v36.48s-2.05,8.9-9.8,8.9v26.23h-8.9v-4.34H179.9v8.44H168.05V408H187.2V389.74l9.58-7.75,2.74-34.89,7.07-8s-2.28-30.33,24.17-63.62,81-65.23,81-65.23h6.61s60.66,43.79,74.8,62.49Z"/><path class="cls-1" d="M411.71,85.6a8,8,0,0,0-.79-3.46,7.06,7.06,0,0,1,.38,2.27,7.58,7.58,0,0,1-15.15,0,7.06,7.06,0,0,1,.37-2.27,7.88,7.88,0,0,0-.79,3.46,8,8,0,0,0,7.3,8V95a3.46,3.46,0,0,0-2.77,3.39,3.43,3.43,0,0,0,1,2.41v2.38a1.35,1.35,0,0,0,0,2.6v2.54a3.44,3.44,0,0,0,0,4.83v.25h.3a3.38,3.38,0,0,0,2.17.79,3.42,3.42,0,0,0,2.18-.79h.37V113a3.4,3.4,0,0,0,0-4.63v-2.69a1.31,1.31,0,0,0,0-2.5v-2.53a3.41,3.41,0,0,0,.91-2.31A3.47,3.47,0,0,0,404.42,95v-1.4A8,8,0,0,0,411.71,85.6Z"/><rect class="cls-2" x="400.03" y="111.08" width="7.38" height="16.4"/><circle class="cls-3" cx="479.23" cy="137.46" r="16.39"/><path d="M488.76,131.92a.39.39,0,0,0-.5-.07l-1,.55L480,136.58l-.43.25c.33.27.43.56.33.79h-.16a.55.55,0,0,0-.35-.65s-.06,0-.08-.07,0-.11,0-.15-.08-.2-.11-.31c-.21-.75-.41-1.51-.61-2.28a.22.22,0,0,0-.27-.16c-.11,0-.16.12-.13.26.13.45.25.9.37,1.36.06.24.12.47.2.73l-.09-.05-.83-.59-3.89-2.8a.61.61,0,1,0-.72,1l.41.29,4.45,3.19.24.19-.12.07c-.28.15-.53.31-.79.46a.43.43,0,0,0-.13.09.39.39,0,0,0-.06.52.42.42,0,0,0,.54.11l1.1-.63c.13-.09.26,0,.38,0s.11.15.12.23c.38,1.48.76,3,1.15,4.44q.72,2.89,1.48,5.77a3.74,3.74,0,0,0,.12.48.3.3,0,0,0,.09,0l.11,0q-1.38-5.3-2.72-10.57h0a1.25,1.25,0,0,1,.24.16.78.78,0,0,0,.37.13.62.62,0,0,0,.58-.42.6.6,0,0,0-.23-.68c-.1-.09-.23-.17-.35-.26a.74.74,0,0,1,.12-.09l4.65-2.66,3.66-2.11a.46.46,0,0,0,.17-.14A.39.39,0,0,0,488.76,131.92Zm-10,5.23a.56.56,0,0,0-.11.44l-.13,0a.6.6,0,0,1,.27-.74C478.89,137,478.91,137.06,478.8,137.15Zm.38.44s-.1-.08-.1-.14.07-.13.12-.12a.17.17,0,0,1,.14.14C479.34,137.53,479.26,137.59,479.18,137.59Z"/><path d="M469.09,143.56s0,0,0,0a.48.48,0,0,0,.27-.52.52.52,0,0,0-.38-.49,1,1,0,0,0-.6,0,.54.54,0,0,0-.42.47.52.52,0,0,0,.29.57h0a.7.7,0,0,0-.19,1.1.93.93,0,0,0,1.07.08A.7.7,0,0,0,469.09,143.56Zm-.4-.73a.29.29,0,1,1,0,.57.26.26,0,0,1-.28-.28A.27.27,0,0,1,468.69,142.83Zm0,1.68a.36.36,0,0,1-.33-.4.33.33,0,0,1,.32-.35.34.34,0,0,1,.34.37A.34.34,0,0,1,468.7,144.51Z"/><path d="M479.78,149.69a.59.59,0,0,0-.61-.18,1.17,1.17,0,0,0-.28.13,1.08,1.08,0,0,1,.12-.5.29.29,0,0,1,.3-.11.22.22,0,0,1,.18.19.11.11,0,0,0,0,.06l.41-.05a.61.61,0,0,0-.49-.56.79.79,0,0,0-.93.53,2.1,2.1,0,0,0,0,1.31.76.76,0,0,0,1.28.31A.9.9,0,0,0,479.78,149.69Zm-.28.81a.27.27,0,0,1-.42.12.57.57,0,0,1-.08-.69.28.28,0,0,1,.49,0c0,.09,0,.18.08.26S479.53,150.42,479.5,150.5Z"/><path d="M467.73,136.78a.77.77,0,0,0-1.24-.32.81.81,0,0,0-.21.76.63.63,0,0,0,.77.58.82.82,0,0,0,.31-.13,1.34,1.34,0,0,1-.11.47.29.29,0,0,1-.33.14c-.13,0-.16-.14-.19-.25l-.42.05a.59.59,0,0,0,.39.53.76.76,0,0,0,1-.39,1.22,1.22,0,0,0,.12-.49A2,2,0,0,0,467.73,136.78Zm-.49.6a.28.28,0,0,1-.49-.06,1.14,1.14,0,0,1-.06-.25.73.73,0,0,1,0-.23.27.27,0,0,1,.46-.12A.56.56,0,0,1,467.24,137.38Z"/><path d="M470.23,130.82a.72.72,0,0,0-.24-.47.69.69,0,0,0-1.12.31,1.94,1.94,0,0,0-.1.71,3,3,0,0,0,0,.42,1.09,1.09,0,0,0,.16.52.73.73,0,0,0,.69.27.67.67,0,0,0,.54-.46A2.6,2.6,0,0,0,470.23,130.82Zm-.44,1.06a.51.51,0,0,1-.06.21.22.22,0,0,1-.38,0,.76.76,0,0,1-.1-.29,1.34,1.34,0,0,1,0-.2v-.3h0c0-.17,0-.35.06-.52a.54.54,0,0,1,.11-.18.22.22,0,0,1,.34.07,1,1,0,0,1,.07.31C469.8,131.28,469.8,131.57,469.79,131.88Z"/><path d="M486.07,146.84v.42h-.84l-.06.37a1.71,1.71,0,0,1,.39,0,.69.69,0,0,1,.6.55.85.85,0,0,1-.37.94.79.79,0,0,1-1.17-.43s0-.06,0-.1l.42-.05a1.73,1.73,0,0,0,.13.24.3.3,0,0,0,.49-.08.6.6,0,0,0,0-.54.33.33,0,0,0-.5-.12c-.17.14-.33.07-.51.05,0-.2.07-.39.11-.58s.07-.38.11-.57a.09.09,0,0,1,.06-.06Z"/><path d="M489.54,132.14h.9v.41h-1.57a.84.84,0,0,1,.12-.4,3,3,0,0,1,.52-.6l.34-.34a.43.43,0,0,0,.13-.37.27.27,0,0,0-.23-.26.29.29,0,0,0-.34.16,1.17,1.17,0,0,0-.06.2l-.42,0a.64.64,0,0,1,.42-.64,1.06,1.06,0,0,1,.61,0,.65.65,0,0,1,.43.9,1.33,1.33,0,0,1-.38.53l-.37.35Z"/><path d="M479.63,124.81l-.43,0a.65.65,0,0,1,.45-.65,1,1,0,0,1,.58,0,.66.66,0,0,1,.41,1,1.3,1.3,0,0,1-.38.49l-.32.31-.13.15h.9v.41h-1.57a1,1,0,0,1,.29-.62c.16-.18.35-.35.52-.53a.91.91,0,0,0,.31-.44.31.31,0,0,0-.23-.38.3.3,0,0,0-.38.26Z"/><path d="M490.24,144v-1.49H490a.16.16,0,0,0-.14.07c-.29.42-.58.87-.88,1.28-.12.18-.06.35-.08.53.29,0,.57,0,.84,0,.09,0,.12,0,.12.13s0,.22,0,.35h.43v-.48h.29V144Zm-.44,0h-.54c.19-.26.36-.51.52-.77h0Z"/><path d="M491.13,137.55l0-.35h.12a.29.29,0,0,0,.26-.3.24.24,0,0,0-.22-.25.28.28,0,0,0-.32.22.31.31,0,0,1,0,.08l-.4-.06a.62.62,0,0,1,.18-.41.78.78,0,0,1,1.09,0,.53.53,0,0,1-.08.79l-.1.07a.53.53,0,0,1,.41.4.74.74,0,0,1-.62.89.82.82,0,0,1-.66-.16.68.68,0,0,1-.26-.49L491,138c.12.29.24.38.43.33a.39.39,0,0,0,.24-.45C491.61,137.6,491.5,137.54,491.13,137.55Z"/><path d="M472.36,147.29v-.42h1.53c0,.15,0,.29-.09.43a3.06,3.06,0,0,0-.69,1.76v.12h-.42a2.83,2.83,0,0,1,.2-1,3.27,3.27,0,0,1,.5-.89Z"/><path d="M478.71,124.07v2.35h-.44v-1.68a1.68,1.68,0,0,1-.58.33c0-.13,0-.25,0-.37s0,0,.05,0a1.17,1.17,0,0,0,.6-.54.1.1,0,0,1,.05,0Z"/><path d="M468.28,132.54h-.43v-1.69a1.72,1.72,0,0,1-.59.33v-.37s0,0,.05-.05a1.1,1.1,0,0,0,.6-.54.07.07,0,0,1,.06,0h.31Z"/><path d="M474.1,125.76v2.35h-.44v-1.68a1.5,1.5,0,0,1-.59.33c0-.13,0-.25,0-.36s0-.06.07-.07a1,1,0,0,0,.51-.43.24.24,0,0,1,.28-.14Z"/><path d="M485.93,125.76v2.36h-.44v-1.67l-.56.33,0,0v-.35s0-.05.06-.07a1.16,1.16,0,0,0,.53-.42.21.21,0,0,1,.26-.15Z"/><path d="M472.65,125.76v2.36h-.44v-1.66l-.55.32,0,0v-.37s0,0,.05,0a1.18,1.18,0,0,0,.6-.54.1.1,0,0,1,.05,0Z"/><path d="M493.64,137.73v-.48h1.1v.48Z"/><path d="M491.57,144.9l.25-.42,1,.55-.25.43Z"/><path d="M492.56,129.51l.24.43-1,.55-.25-.43Z"/><path d="M486.2,150.09l.43-.25.55,1-.43.24Z"/><path d="M486.8,123.91l.42.25-.55,1-.43-.25Z"/><path d="M479,122h.48V123H479Z"/><path d="M479,151.9h.47V153H479Z"/><path d="M464.77,137.21v.47h-1.06v-.47Z"/><path d="M471.66,151l-.43-.25.54-.93.43.25Z"/><path d="M471.27,124.13l.43-.24.53.93-.42.24Z"/><path d="M466.82,144.89l-.93.53-.24-.43.92-.53Z"/><path d="M466.84,130l-.25.43-.92-.54.25-.42Z"/><path d="M494,142.19c-.05.18-.05.18-.21.13l-.88-.29,0-.18Z"/><path d="M491.85,128.44l-.89.64-.11-.15.89-.64Z"/><path d="M489.56,125.88l.14.13-.74.81-.14-.12Z"/><path d="M490,127.9l-.13-.14.82-.73.13.14Z"/><path d="M494,132.6l.06.18-1,.34-.07-.18Z"/><path d="M488.79,148.26l.14-.13.73.82-.14.13Z"/><path d="M493.43,143.71l-.07.17-1-.45.08-.17Z"/><path d="M491.82,146.53l-.11.15-.89-.65.11-.15Z"/><path d="M488.4,150l-.15.11-.64-.89.15-.11Z"/><path d="M493.45,131.26l-1,.44-.07-.17.63-.28a2.36,2.36,0,0,0,.28-.12c.08,0,.12,0,.14.05A.16.16,0,0,0,493.45,131.26Z"/><path d="M490.81,147.8l-.13.13-.81-.73.12-.14Z"/><path d="M493.31,140.57a.25.25,0,0,1,0-.13.12.12,0,0,1,.1,0l.78.17.11,0c.09,0,.1.05.08.12s0,.09-.1.07l-.91-.2Z"/><path d="M493.58,138.9l.55.06.46,0c.11,0,.06.09.06.14s0,0-.08,0l-.91-.1c-.12,0-.12,0-.1-.13Z"/><path d="M487.8,125.86l-.16-.11.65-.88.15.11Z"/><path d="M493.58,136.07l0-.18,1.1-.12,0,.19Z"/><path d="M493.35,134.58l0-.18,1.07-.23,0,.18Z"/><path d="M485.6,151.61l-.17.08-.44-1,.17-.07Z"/><path d="M484,122.69c.18,0,.19,0,.14.2l-.27.81,0,.07-.17-.06Z"/><path d="M485.2,124.33l-.17-.08.45-1,.17.08Z"/><path d="M484.09,152.2l-.18.06-.33-1v0c.16-.06.16-.06.21.1S484,151.9,484.09,152.2Z"/><path d="M482.34,152.67l-.22-1.06.18,0,.21,1c0,.05,0,.08-.07.09Z"/><path d="M482.33,123.37l-.1,0c-.06,0-.07,0-.06-.08.07-.31.14-.62.2-.93,0-.07.06-.06.1,0s.1,0,.09.07l-.21,1S482.34,123.34,482.33,123.37Z"/><path d="M480.85,123.12l-.19,0,.12-1.06H481Z"/><path d="M480.81,151.81l.1,1.07-.18,0-.11-1.08Z"/><path d="M468.89,149l-.14-.12.72-.79.14.12Z"/><path d="M470.05,125l.15-.11.62.86-.15.11Z"/><path d="M473.24,150.62l.17.08-.43,1-.17-.08Z"/><path d="M474.5,152.24c-.18-.05-.18-.05-.13-.21l.28-.85h0c.15,0,.15,0,.1.19Z"/><path d="M477.49,152.88l.11-1.06h.19c0,.25-.06.49-.08.74a1.6,1.6,0,0,0,0,.23c0,.08,0,.11-.11.09Z"/><path d="M466.71,146.64l-.11-.15.86-.62.11.15Z"/><path d="M468.93,125.85l.71.8-.14.12-.71-.79Z"/><path d="M477.55,122l.16,0a2.51,2.51,0,0,1,0,.27c0,.24.05.49.08.73,0,0,0,.08-.07.08s-.12,0-.12-.06c0-.31-.07-.63-.1-1A.09.09,0,0,1,477.55,122Z"/><path d="M473.28,124.29l-.43-1,.17-.08.43,1Z"/><path d="M476.12,151.57l.17,0c0,.17-.07.34-.11.5s-.07.31-.1.47-.05.07-.11.06-.09,0-.07-.09c.07-.3.13-.6.19-.9Z"/><path d="M470.16,150.06,470,150l.63-.86.15.11Z"/><path d="M476.11,122.26l.18.82s0,.06,0,.09,0,.16-.15.17c0-.18-.07-.35-.11-.53s-.05-.26-.08-.39,0-.12.1-.15Z"/><path d="M474.87,123.68c-.17.07-.17.07-.23-.09l-.24-.77,0-.09.17-.06Z"/><path d="M468.53,147.19l-.79.71-.13-.14.8-.71Z"/><path d="M465.44,133.06l-1-.32v0c.05-.15.05-.15.21-.1l.7.23C465.52,132.89,465.52,132.89,465.44,133.06Z"/><path d="M466.06,131.48l-.08.17-1-.44.08-.17Z"/><path d="M467.64,127.13l.13-.14.79.71-.12.14Z"/><path d="M465.43,141.82l.06.18-1,.32-.06-.17Z"/><path d="M466.63,128.4l.11-.15.86.62-.11.15Z"/><path d="M465,143.67l1-.43.08.17-1,.43Z"/><path d="M465.1,134.35l0,.17-.46-.09-.49-.11c-.06,0-.08,0-.06-.1s0-.1.11-.08l.89.19Z"/><path d="M463.8,139.14l0-.17,1-.11a.29.29,0,0,1,0,.09c0,.07,0,.1-.09.11l-.84.08A.4.4,0,0,1,463.8,139.14Z"/><path d="M465.08,140.54l-.42.09-.48.1c-.12,0-.12,0-.15-.1a.09.09,0,0,0,0,0l.82-.18h.07C465.07,140.35,465.07,140.36,465.08,140.54Z"/><path d="M464.85,135.84V136l-1-.11s0,0,0,0,0-.16.14-.15Z"/><path class="cls-3" d="M478.84,136.87a.23.23,0,0,1,0,.29.47.47,0,0,0-.11.43h-.15A.62.62,0,0,1,478.84,136.87Z"/><path class="cls-3" d="M479.33,137.47a.14.14,0,0,1-.14.13.18.18,0,0,1-.11-.15.16.16,0,0,1,.12-.13A.17.17,0,0,1,479.33,137.47Z"/><path class="cls-3" d="M468.69,143.76a.34.34,0,0,1,.34.37.34.34,0,0,1-.33.38.35.35,0,0,1-.33-.39A.33.33,0,0,1,468.69,143.76Z"/><path class="cls-3" d="M468.69,142.83a.26.26,0,0,1,.28.28.26.26,0,0,1-.28.28.28.28,0,0,1,0-.56Z"/><path class="cls-3" d="M479.56,150.25c0,.09,0,.17-.05.25a.28.28,0,0,1-.43.12.57.57,0,0,1-.08-.69.29.29,0,0,1,.49,0A1.34,1.34,0,0,1,479.56,150.25Z"/><path class="cls-3" d="M466.69,137.07a1.37,1.37,0,0,1,0-.23.27.27,0,0,1,.46-.12.57.57,0,0,1,.05.66.28.28,0,0,1-.49-.06A1.14,1.14,0,0,1,466.69,137.07Z"/><path class="cls-3" d="M469.22,131.3c0-.17,0-.35.07-.52a.31.31,0,0,1,.11-.18.2.2,0,0,1,.32.08.64.64,0,0,1,.08.3c0,.3,0,.6,0,.9a.4.4,0,0,1-.07.21.21.21,0,0,1-.38,0,2.63,2.63,0,0,1-.09-.3,1.27,1.27,0,0,1,0-.2v-.3Z"/><path class="cls-3" d="M489.8,144h-.53l.51-.77h0Z"/><path d="M543.37,190.27l-1.88-2.63L562,171c-1.15-2.19-1.17-3.2-.1-4.09s2.21-.73,4.08.86l4.41-3.53c-.39-.43-.7-.79-1-1.13-3.34-3.51-6.66-7-10-10.48a2.82,2.82,0,0,0-1.81-.74c-3.87,0-7.73.09-11.59,0a41.55,41.55,0,0,1-4.55-.56l-.07-.43c.41-.29.81-.58,1.23-.86,4.33-2.87,8.69-5.7,13-8.64a7.42,7.42,0,0,0,2.18-2.38c2.42-4.24,4.73-8.55,7.08-12.83.12-.22.26-.42.48-.79.82,1.58,1.66,2.89,1.59,4.67-.16,4.21-.16,8.43-.17,12.65a2.38,2.38,0,0,0,.53,1.52c3.69,3.72,7.42,7.4,11.14,11.08a7.57,7.57,0,0,0,.61.47l4.12-5.83c-.39-.46-.74-.84-1.07-1.24-1-1.26-1.06-2.62,0-3.57a2.41,2.41,0,0,1,3.45.17c.14.12.26.25.55.52l15-21.34a20.79,20.79,0,0,1,2,1.77,1.52,1.52,0,0,1,.13,1.18q-2.89,11.85-5.83,23.68c-.42,1.68-.88,3.35-1.23,5a1.89,1.89,0,0,0,.37,1.37c1.11,1.33,2.32,2.57,3.47,3.86s1.19,2.69.12,3.66-2.4.81-3.61-.44c-.61-.63-1.2-1.28-1.95-2.08-.58,2.34-1.15,4.43-1.57,6.55-.08.37.35.94.69,1.28a136.56,136.56,0,0,1,13.93,16.27,43.82,43.82,0,0,1,3.35,5.89c.65,1.34,1.22,2.95,0,4.24s-2.9.83-4.37.26a30.41,30.41,0,0,1-9.4-6.21c-4.26-3.88-8.34-8-12.44-12a1.6,1.6,0,0,0-1.94-.53c-1.84.65-3.72,1.17-5.79,1.81.7.8,1.3,1.46,1.88,2.15a2.38,2.38,0,1,1-3.49,3.2c-1-1-1.88-2.14-2.9-3.12A1.64,1.64,0,0,0,571,182q-13.39,4.05-26.76,8.18a1.59,1.59,0,0,0-.41.3Z"/></svg>