<svg width="24" height="25" viewBox="0 0 24 25" fill="none" xmlns="http://www.w3.org/2000/svg">
<path d="M3.28896 21.8983L6.78901 21.22L7.67543 22.2153C7.98789 22.5717 8.53559 22.6017 8.88564 22.2866C9.24203 21.9742 9.27206 21.4265 8.95692 21.0764L8.74439 20.837L10.2006 20.5566L11.0044 21.4646C11.3168 21.821 11.8645 21.8511 12.2209 21.5386C12.5773 21.2262 12.6073 20.6785 12.2922 20.3284L12.156 20.1736L16.0063 19.4269C19.1574 23.0692 22.1599 25.8268 23.2732 24.6615C24.5663 23.7069 22.1884 20.3917 18.9554 16.8193L20.1655 13.0946L20.3017 13.2494C20.6141 13.6058 21.1618 13.6359 21.5119 13.3207C21.8683 13.0083 21.8983 12.4606 21.5859 12.1042L20.7821 11.1961L21.2382 9.78269L21.4508 10.0221C21.7632 10.3785 22.3109 10.4085 22.661 10.0934C23.0174 9.7809 23.0474 9.2332 22.7323 8.88315L21.8458 7.88784L22.9445 4.49715C23.0193 4.26731 22.9657 4.00552 22.8032 3.82464L22.0257 2.94268C21.8858 2.77887 21.6247 2.79542 21.4972 2.97311L14.7911 12.5165C12.6 10.3489 10.5166 8.42112 9.25262 7.25856L9.58172 1.36036L8.71528 0.388459L6.56499 5.18719C6.175 5.06699 5.98658 5.1591 5.98658 5.1591C5.98658 5.1591 5.87711 5.32948 5.94582 5.73215L0.919093 7.28121L1.78553 8.25311L7.68129 8.64096C8.6798 10.0424 10.3456 12.3389 12.2271 14.779L1.95604 20.2807C1.76225 20.3855 1.71641 20.6351 1.86264 20.8015L2.64012 21.6835C2.80268 21.8644 3.04886 21.9536 3.28628 21.9046L3.28896 21.8983Z" fill="#A8854E"/>
</svg>
